<svg width="181" height="34" viewBox="0 0 181 34" fill="none" xmlns="http://www.w3.org/2000/svg">
<path d="M38.0044 9.98462C36.49 9.98462 35.2412 11.1891 35.2412 12.7077V18.4682V24.2286H38.0044V18.4682V12.7077H41.2991H44.5937V9.98462H41.2991H38.0044Z" fill="#E1E1E6"/>
<path d="M61.0662 17.0793V12.6804C61.0662 11.1879 59.844 9.95728 58.3029 9.95728H53.8392H49.3755C47.8611 9.95728 46.6123 11.1617 46.6123 12.6804V17.0793V21.4782C46.6123 22.9707 47.8345 24.2013 49.3755 24.2013H53.8392H58.3029C59.8174 24.2013 61.0662 22.9968 61.0662 21.4782V17.0793ZM58.3029 17.0793V21.4782H53.8392H49.3755V17.0793V12.6804H53.8392H58.3029V17.0793Z" fill="#E1E1E6"/>
<path d="M66.5943 9.98462C65.0798 9.98462 63.8311 11.1891 63.8311 12.7077V17.1066V21.5055C63.8311 22.998 65.0533 24.2286 66.5943 24.2286L76.3188 24.0977V21.5055H66.5943V17.1066V12.7077H76.3188V10.1155L66.5943 9.98462Z" fill="#E1E1E6"/>
<path d="M92.1572 9.98462H88.4109L82.9376 15.7189H81.8482V9.98462H79.085V17.0804V24.2025H81.8482V18.442H83.2298H83.4424L89.1283 24.2025H92.9277L85.6211 16.7662L92.1572 9.98462Z" fill="#E1E1E6"/>
<path d="M96.2701 21.4782V18.4409L107.961 18.3099V15.7177V12.6804C107.961 11.1879 106.739 9.95728 105.197 9.95728H100.734H96.2701C94.7556 9.95728 93.5068 11.1617 93.5068 12.6804V17.0793V21.4782C93.5068 22.9707 94.729 24.2013 96.2701 24.2013L107.961 24.0704V21.4782H96.2701ZM96.2701 12.6804H100.734H105.197V15.7177H102.115H96.2701V12.6804Z" fill="#E1E1E6"/>
<path d="M114.896 5.82056H113.834L112.133 7.88909V9.95762H110.034V12.6807L112.133 12.6546V21.4785C112.133 22.971 113.355 24.2016 114.896 24.2016L119.36 24.0707V21.4785H114.896V12.6284L119.759 12.5498V9.95762H114.896V5.82056Z" fill="#E1E1E6"/>
<path d="M134.319 18.4409C134.319 16.9484 133.097 15.7177 131.556 15.7177H128.075H124.594V12.6804H134.319V10.0882L124.594 9.95728C123.08 9.95728 121.831 11.1617 121.831 12.6804V15.7177C121.831 17.2102 123.053 18.4409 124.594 18.4409H128.075H131.556V21.4782H121.831V24.0704L131.556 24.2013C133.07 24.2013 134.319 22.9968 134.319 21.4782V18.4409Z" fill="#E1E1E6"/>
<path d="M148.744 9.98462H144.281H139.817C138.302 9.98462 137.054 11.1891 137.054 12.7077V17.1066V21.5055C137.054 22.998 138.276 24.2286 139.817 24.2286L151.508 24.0977V21.5055H139.817V18.4682L151.508 18.3373V15.7451V12.7077C151.508 11.1891 150.285 9.98462 148.744 9.98462ZM148.744 15.7189H139.817V12.6816H144.281H148.744V15.7189Z" fill="#E1E1E6"/>
<path d="M165.963 9.98462L154.272 10.1155V12.7077H165.963V15.7451L154.272 15.876V18.4682V21.5055C154.272 22.998 155.495 24.2286 157.036 24.2286H161.499H165.963C167.478 24.2286 168.726 23.0242 168.726 21.5055V17.1066V12.7077C168.7 11.1891 167.478 9.98462 165.963 9.98462ZM165.963 21.4793H161.499H157.036V18.442H165.963V21.4793Z" fill="#E1E1E6"/>
<path d="M175.639 12.6272L180.501 12.5487V9.95645H175.639V5.79321H174.576L172.875 7.86174V9.93026H170.776V12.6534L172.875 12.6272V21.4512C172.875 22.9437 174.098 24.1743 175.639 24.1743L180.102 24.0434V21.4512H175.639V12.6272Z" fill="#E1E1E6"/>
<path d="M27.9323 0.661806L23.442 0.00720898C23.3092 -0.0189749 23.1763 0.0333897 23.1232 0.0857574L21.2102 2.54704C21.0773 2.70414 21.0508 2.91362 21.1039 3.0969C21.157 3.28019 20.9976 3.4373 20.8116 3.41111L19.244 3.07072C19.0049 3.01835 18.7392 3.09691 18.5798 3.30638L12.3625 11.1615C12.2562 11.3186 12.0437 11.371 11.8577 11.2925L9.49298 10.2451C9.28042 10.1404 9.04129 10.1666 8.85531 10.2975L7.65967 11.1092C7.47369 11.2401 7.20799 11.2663 6.99543 11.1615L6.4109 10.8735C6.03893 10.6902 5.58724 10.8997 5.48097 11.2925L5.05585 13.1515C4.94957 13.5966 5.13556 14.0418 5.5341 14.2774L6.43747 14.8273L9.33356 16.5816L10.7417 17.4457C11.1403 17.6813 11.6451 17.629 11.9905 17.3409L14.3552 15.2986C14.5412 15.1415 14.8335 15.0891 15.046 15.22L15.7634 15.5866C16.0025 15.7175 16.2948 15.6652 16.4808 15.4819L17.6764 14.3822C17.8624 14.1989 18.1547 14.1727 18.3672 14.2774L20.1474 15.0891C20.4131 15.22 20.7319 15.1415 20.9179 14.9058L21.7416 13.8585L27.9854 5.97713C28.2777 5.61056 28.0917 5.0607 27.6135 4.95596L26.2318 4.64175C25.9396 4.58938 25.8067 4.22281 26.0193 4.01334L28.1714 1.36877C28.384 1.05456 28.2511 0.714174 27.9323 0.661806Z" fill="#8257E6"/>
<path d="M7.34077 16.5279C7.20792 16.4493 7.07507 16.5802 7.12821 16.7111L7.79245 18.4393C7.84559 18.5702 7.84559 18.7011 7.81902 18.832L7.23449 21.0839C7.20792 21.241 7.26105 21.3981 7.36733 21.4766L9.04122 22.7596C9.20064 22.8644 9.41319 22.8644 9.54604 22.7334L11.2996 21.2148C11.4059 21.1362 11.5388 21.0839 11.645 21.0577L13.6378 20.8482C13.7706 20.822 13.8238 20.6387 13.6909 20.5602L7.34077 16.5279Z" fill="#8257E6"/>
<path d="M6.75737 22.3416C6.65109 22.263 6.49167 22.2368 6.35882 22.2892L4.95064 22.97C4.87093 22.9962 4.81778 23.0747 4.76464 23.1533L1.76228 30.4586C1.76228 30.4848 1.76228 30.4848 1.76228 30.5109C1.78885 30.5371 1.81542 30.5633 1.86856 30.5633L2.55937 30.3015C2.58594 30.3015 2.61251 30.3015 2.63908 30.3015C2.66564 30.3277 2.69222 30.38 2.66565 30.4062L0.513506 33.8887C0.460367 33.9672 0.566648 34.0458 0.619787 33.9672L8.40469 26.2692C8.48439 26.1906 8.51096 26.1121 8.53753 26.0073L8.69695 24.0173C8.69695 23.8864 8.64381 23.7817 8.5641 23.7031L6.75737 22.3416Z" fill="#8257E6"/>
</svg>
